<svg width="1034" height="365" viewBox="0 0 1034 365" fill="none" xmlns="http://www.w3.org/2000/svg">
<path d="M608.407 101.49C609.794 99.5619 611.358 97.3691 613.233 94.7686C626.316 108.146 635.625 123.076 640.718 140.497C647.842 164.871 643.448 186.38 626.748 206.27C603.136 234.368 579.268 262.114 550.851 285.606C545.47 290.047 539.611 293.959 533.719 297.749C530.656 299.711 527.139 301.077 523.688 302.311C519.938 303.655 515.078 304.614 513.28 300.559C512.026 297.738 512.914 292.835 514.711 290.058C519.083 283.292 524.565 277.243 529.547 270.852C531.012 268.968 532.798 267.117 533.553 264.946C534.296 262.775 534.917 259.359 533.774 258.092C532.554 256.737 528.715 256.241 526.917 257.133C522.9 259.15 518.595 261.618 515.899 265.056C507.976 275.182 500.797 285.871 493.307 296.317C491.055 299.446 488.969 302.752 486.361 305.562C481.956 310.322 476.352 313.264 469.772 313.352C467.52 313.385 464.413 312.261 463.248 310.586C462.427 309.407 463.669 306.003 464.968 304.35C467.453 301.198 470.715 298.675 473.501 295.733C478.172 290.807 483.021 285.992 487.182 280.67C489.324 277.926 491.543 273.794 487.748 270.797C484.364 268.13 480.769 270.411 478.449 273.078C470.86 281.794 463.57 290.774 456.202 299.678C452.329 304.35 448.723 309.253 444.618 313.705C442.687 315.798 440.068 317.716 437.394 318.531C435.053 319.247 431.347 319.236 429.804 317.837C428.029 316.239 426.797 312.427 427.441 310.168C428.606 306.069 430.881 302.069 433.51 298.642C439.902 290.334 446.87 282.455 453.372 274.224C455.747 271.227 457.8 267.866 459.353 264.373C460.008 262.907 459.608 259.976 458.521 259.051C457.456 258.136 454.449 258.224 453.128 259.095C449.944 261.199 446.792 263.679 444.451 266.643C438.881 273.717 433.766 281.144 428.495 288.449C424.645 293.793 412.196 306.663 404.984 303.17C397.772 299.678 403.32 290.498 403.32 290.498C403.32 290.498 411.74 279.315 417.221 273.188C425.921 263.458 434.842 253.894 443.02 243.734C445.982 240.054 447.403 234.963 448.779 230.302C449.245 228.715 447.913 225.542 446.493 224.782C445.183 224.087 441.943 225.024 440.756 226.324C434.942 232.704 429.571 239.481 423.979 246.059C420.528 250.114 417.166 254.29 413.338 257.982C410.286 260.913 406.281 262.5 402.197 260.031C398.18 257.607 398.214 253.332 399.545 249.673C401.343 244.737 403.351 239.58 406.547 235.503C414.936 224.793 424.256 214.798 432.734 204.143C436.806 199.03 440.268 193.278 443.031 187.372C444.007 185.29 442.088 181.863 441.488 179.053C438.925 180.011 435.386 180.232 433.976 182.072C427.818 190.083 422.359 198.611 416.478 206.843C414.569 209.509 412.517 212.451 409.809 214.071C407.401 215.504 403.429 216.484 401.187 215.449C399.013 214.446 396.793 210.49 397.015 208.044C397.515 202.303 398.769 196.408 400.954 191.064C410.031 168.816 423.391 148.927 436.44 128.883C444.673 116.245 453.461 103.892 460.762 90.7357C472.091 70.3175 489.423 59.7723 512.115 56.7201C533.686 53.8221 553.914 58.3288 573.454 67.2652C569.504 75.0446 569.371 74.5157 561.348 73.1273C551.961 71.5075 542.263 69.8437 532.865 70.5268C504.281 72.5984 488.081 95.0771 494.006 123.021C500.975 155.902 532.809 183.989 567.418 187.394C574.153 188.055 581.166 188.199 587.812 187.119C615.541 182.645 630.144 159.825 623.397 131.77C622.088 126.305 619.68 121.027 617.173 115.947C614.743 111.044 611.536 106.526 608.429 101.446L608.407 101.49ZM523.921 62.7805C523.622 62.6703 523.144 62.3177 522.678 62.3508C487.238 64.7088 463.603 86.6035 467.409 122.459C473.057 175.703 531.078 220.198 584.883 213.652C618.748 209.531 638.677 187.361 637.057 154.8C636.691 147.362 634.194 140.035 632.685 132.652C632.174 132.773 631.664 132.894 631.143 133.015C631.609 135.902 632.174 138.767 632.541 141.665C636.347 172.221 618.493 195.989 587.923 200.826C568.195 203.956 549.575 199.791 532.188 190.733C504.847 176.485 485.606 155.439 479.326 124.553C474.743 102.008 482.666 82.8681 501.773 71.4965C508.442 67.5297 516.387 65.6675 523.91 62.7805H523.921Z" fill="white"/>
<path d="M605.38 103.709C613.444 116.442 615.106 128.354 607.772 140.408C599.597 153.841 586.381 156.841 572.112 154.455C551.252 150.962 535.389 139.653 525.828 120.778C519.813 108.91 519.359 96.6915 528.033 85.7104C535.909 75.7256 551.086 72.1346 565.909 76.4263C562.541 80.7837 559.384 84.8893 556.193 88.973C550.455 96.3193 549.945 101.585 554.842 109.545C560.768 119.179 569.177 125.069 580.975 125.365C586.757 125.507 591.255 123.394 594.545 118.49C597.769 113.683 601.38 109.14 605.402 103.709H605.38ZM608.581 123.077C603.031 137.66 593.737 143.276 579.003 141.295C564.834 139.39 553.457 132.427 544.207 121.829C531.622 107.421 530.946 95.9361 541.858 80.9479C531.988 85.4148 527.147 96.4507 529.584 108.975C534.148 132.47 563.538 152.243 587.367 147.831C600.959 145.313 609.069 136.259 608.592 123.066L608.581 123.077Z" fill="white"/>
<path d="M584.138 122.977C570.604 121.874 562.142 116.57 557.159 106.205C554.729 101.154 555.226 96.4678 558.794 91.8033C569.411 77.9532 579.763 63.9156 590.247 49.9552C594.058 44.8717 595.892 44.6732 600.179 49.448C605.216 55.0498 610.232 60.7067 614.784 66.6834C620.042 73.5974 620.042 79.3426 615.027 86.411C607.47 97.0412 599.869 107.66 591.805 117.905C589.694 120.584 585.828 121.896 584.149 122.966L584.138 122.977ZM589.706 93.9977C589.672 88.9031 585.596 84.8782 580.636 85.0436C575.973 85.198 572.052 89.2119 571.952 93.9425C571.842 98.9709 575.896 102.908 581.055 102.753C585.96 102.61 589.728 98.7945 589.706 94.0087V93.9977ZM612.055 84.6687C597.406 86.5654 588.778 79.0118 583.055 66.4959C582.613 74.1267 586.568 79.1441 592.534 82.6287C598.621 86.1905 605.051 88.7708 612.044 84.6577L612.055 84.6687ZM607.26 68.7675C604.542 66.4408 602.775 63.8053 601.35 63.9818C599.494 64.2133 597.914 66.6614 596.224 68.1611C597.671 69.7269 598.974 72.3183 600.609 72.5499C602.245 72.7814 604.2 70.6311 607.26 68.7675Z" fill="white"/>
<path d="M347.996 346.424H419V365H330V274H347.996V346.424Z" fill="white"/>
<path d="M622 364.992V346.656H692.597V274H711V365H622V364.992Z" fill="white"/>
<path d="M692.816 18.3466H622V0H711V91H692.816V18.3466Z" fill="white"/>
<path d="M348.718 90.9763C342.641 90.9763 337.253 91.0853 331.881 90.8361C331.231 90.8049 330.147 88.8736 330.132 87.8144C329.985 78.4769 330.039 69.1395 330.031 59.802C330.023 41.3918 330.008 22.9738 330 4.56361C330 3.16182 330 1.75224 330 0H419V18.2544H348.718V90.9763Z" fill="white"/>
<path d="M9.5918 190.79V147.149C9.5918 145.851 9.36914 144.904 8.92383 144.311C8.70117 143.977 8.47852 143.772 8.25586 143.698C8.07031 143.587 7.36523 143.327 6.14062 142.919C4.65625 142.437 3.91406 141.453 3.91406 139.969C3.91406 139.004 4.2666 138.28 4.97168 137.798C5.71387 137.278 6.75293 137.019 8.08887 137.019H9.53613H34.3623H35.8096L37.8135 137.241C38.4443 137.427 38.9639 137.761 39.3721 138.243C39.7803 138.726 39.9844 139.301 39.9844 139.969C39.9844 141.453 39.2422 142.437 37.7578 142.919C36.5332 143.327 35.8096 143.587 35.5869 143.698C35.4014 143.772 35.1973 143.977 34.9746 144.311C34.5293 144.904 34.3066 145.851 34.3066 147.149V193.852C34.3066 197.006 34.3809 199.214 34.5293 200.476C34.7148 201.7 35.0674 202.813 35.5869 203.815C36.0693 204.743 36.6074 205.411 37.2012 205.819C37.7949 206.228 38.9268 206.691 40.5967 207.211V214.503H39.3721C34.5479 214.503 30.54 214.076 27.3486 213.223C23.6006 212.221 20.3164 210.736 17.4961 208.77C14.6758 206.803 12.6719 204.595 11.4844 202.146C10.2227 199.548 9.5918 195.763 9.5918 190.79ZM45.7178 214.503V207.211C49.4287 206.729 52.5273 205.207 55.0137 202.646C57.834 199.715 59.2441 195.503 59.2441 190.011V153.718C59.2441 148.634 57.2959 145.09 53.3994 143.086C52.249 142.492 51.4883 141.991 51.1172 141.583C50.7832 141.138 50.6162 140.507 50.6162 139.69C50.6162 138.726 50.9688 138.039 51.6738 137.631C52.3789 137.223 53.5293 137.019 55.125 137.019H68.7627C69.9131 137.019 70.6738 137.056 71.0449 137.13C71.4531 137.167 71.8428 137.297 72.2139 137.52C73.1787 138.076 73.6611 138.837 73.6611 139.802C73.6611 140.618 73.3643 141.305 72.7705 141.861C72.585 142.047 71.7871 142.548 70.377 143.364C68.7441 144.255 67.4639 145.628 66.5361 147.483C65.6084 149.302 65.1445 151.38 65.1445 153.718V190.066C65.1445 196.301 63.7715 201.422 61.0254 205.43C59.0215 208.398 56.1455 210.773 52.3975 212.555C50.542 213.445 48.3154 214.095 45.7178 214.503ZM112.403 137.019V202.424C112.403 203.871 112.682 204.91 113.238 205.541C113.535 205.912 113.813 206.153 114.073 206.265C114.333 206.339 115.187 206.562 116.634 206.933C118.415 207.341 119.306 208.361 119.306 209.994C119.306 210.959 118.823 211.738 117.858 212.332C117.153 212.777 115.984 213 114.352 213H112.459H87.6328H86.1855C84.8496 213 83.8105 212.759 83.0684 212.276C82.3633 211.757 82.0107 211.033 82.0107 210.105C82.0107 208.584 82.7529 207.582 84.2373 207.1C85.4619 206.691 86.167 206.45 86.3525 206.376C86.5752 206.265 86.7979 206.042 87.0205 205.708C87.4658 205.114 87.6885 204.168 87.6885 202.869V147.149C87.6885 145.851 87.4658 144.904 87.0205 144.311C86.7979 143.977 86.5752 143.772 86.3525 143.698C86.167 143.587 85.4619 143.327 84.2373 142.919C82.7529 142.437 82.0107 141.435 82.0107 139.913C82.0107 138.985 82.3633 138.28 83.0684 137.798C83.8105 137.278 84.8496 137.019 86.1855 137.019H87.6328H112.403ZM129.492 175.761C132.906 176.28 135.522 176.855 137.341 177.486C139.196 178.117 140.866 178.971 142.351 180.047C143.909 181.197 145.097 182.57 145.913 184.166C146.767 185.762 147.193 187.45 147.193 189.231V200.754C147.193 201.941 147.583 202.535 148.362 202.535C148.659 202.535 148.9 202.461 149.086 202.312C149.309 202.127 149.605 201.793 149.977 201.311C150.904 200.049 151.851 199.418 152.815 199.418C153.446 199.418 154.077 199.752 154.708 200.42C155.339 201.088 155.654 201.756 155.654 202.424C155.654 203.574 155.098 204.984 153.984 206.654C152.908 208.287 151.554 209.753 149.921 211.052C148.399 212.276 146.748 213.148 144.967 213.668C143.186 214.225 141.089 214.503 138.677 214.503C133.778 214.503 129.956 213.111 127.21 210.328C124.464 207.508 123.091 203.593 123.091 198.583V189.231C123.091 187.153 123.072 185.947 123.035 185.613C122.85 184.129 122.33 182.849 121.477 181.772C120.4 180.474 118.86 179.713 116.856 179.49V173.534C118.86 173.237 120.289 172.718 121.143 171.976C121.885 171.308 122.386 170.547 122.646 169.693C122.942 168.84 123.091 167.578 123.091 165.908V151.157C123.091 148.819 122.627 147.075 121.699 145.925C120.809 144.774 119.176 143.865 116.801 143.197V137.019H118.248C122.367 137.019 125.874 137.167 128.769 137.464C133.073 137.872 136.914 139.282 140.291 141.694C145.152 145.146 147.583 150.062 147.583 156.445C147.583 161.678 145.95 165.964 142.685 169.304C141.312 170.714 139.697 171.864 137.842 172.755C136.023 173.646 133.24 174.647 129.492 175.761ZM192.114 137.019V213H167.344H165.896C164.561 213 163.521 212.759 162.779 212.276C162.074 211.757 161.722 211.033 161.722 210.105C161.722 208.584 162.464 207.582 163.948 207.1C165.173 206.691 165.878 206.45 166.063 206.376C166.286 206.265 166.509 206.042 166.731 205.708C167.177 205.114 167.399 204.168 167.399 202.869V147.149C167.399 145.851 167.177 144.904 166.731 144.311C166.509 143.977 166.286 143.772 166.063 143.698C165.878 143.587 165.173 143.327 163.948 142.919C162.464 142.437 161.722 141.435 161.722 139.913C161.722 138.985 162.074 138.28 162.779 137.798C163.521 137.278 164.561 137.019 165.896 137.019H167.344H192.114ZM209.426 173.646C212.766 174.313 215.326 174.963 217.107 175.594C218.926 176.225 220.559 177.022 222.006 177.987C224.492 179.583 226.385 181.698 227.684 184.333C229.02 186.931 229.688 189.844 229.688 193.072C229.688 199.418 227.35 204.372 222.674 207.935C220.262 209.79 217.59 211.107 214.658 211.887C211.764 212.629 207.96 213 203.247 213H196.623V207.155C198.107 207.044 199.276 206.84 200.13 206.543C200.983 206.209 201.744 205.671 202.412 204.929C203.637 203.556 204.249 201.422 204.249 198.527V185.892C204.249 184.036 204.082 182.589 203.748 181.55C203.451 180.511 202.876 179.564 202.022 178.711C201.392 178.043 200.705 177.561 199.963 177.264C199.221 176.967 198.163 176.726 196.79 176.54V170.751C198.163 170.64 199.221 170.454 199.963 170.194C200.742 169.935 201.447 169.508 202.078 168.914C202.672 168.357 203.173 167.634 203.581 166.743C203.989 165.853 204.212 165.036 204.249 164.294V161.232V151.603C204.249 150.601 204.082 149.562 203.748 148.485C203.414 147.372 203.006 146.5 202.523 145.869C201.818 145.016 201.021 144.385 200.13 143.977C199.276 143.568 198.107 143.29 196.623 143.142V137.019H203.024C211.485 137.019 217.942 138.763 222.396 142.251C224.437 143.847 225.995 145.776 227.071 148.04C228.147 150.304 228.686 152.753 228.686 155.388C228.686 157.985 228.129 160.435 227.016 162.735C225.939 165.036 224.418 166.947 222.451 168.469C221.004 169.656 219.334 170.621 217.441 171.363C215.549 172.105 212.877 172.866 209.426 173.646ZM260.414 137.019H282.847L298.321 202.424C298.618 203.574 298.952 204.595 299.323 205.485C299.657 206.19 300.399 206.766 301.55 207.211C302.515 207.619 303.183 208.027 303.554 208.436C303.925 208.844 304.11 209.4 304.11 210.105C304.11 212.035 302.663 213 299.769 213H271.992C270.879 213 269.988 212.74 269.32 212.221C268.652 211.664 268.318 210.94 268.318 210.05C268.318 209.308 268.467 208.751 268.764 208.38C269.061 208.009 269.729 207.545 270.768 206.988C271.51 206.617 272.029 206.209 272.326 205.764C272.623 205.318 272.771 204.762 272.771 204.094C272.771 203.463 272.716 202.906 272.604 202.424L270.823 194.353H255.293L256.796 187.729H269.265L259.022 142.474L260.414 137.019ZM256.573 151.157L259.412 162.68L249.56 198.639C249.263 199.678 249.114 200.643 249.114 201.533C249.114 203.871 250.209 205.541 252.398 206.543L254.347 207.434C255.571 207.99 256.184 208.918 256.184 210.217C256.184 212.072 254.829 213 252.12 213H237.981C236.608 213 235.514 212.722 234.697 212.165C233.918 211.571 233.528 210.773 233.528 209.771C233.528 208.695 234.345 207.805 235.978 207.1C237.499 206.432 238.612 205.838 239.317 205.318C240.06 204.762 240.765 204.02 241.433 203.092C242.472 201.57 243.325 199.548 243.993 197.024L256.573 151.157ZM340.181 137.019L369.794 188.452V213H354.598L316.802 147.873C315.985 146.463 315.317 145.479 314.798 144.923C314.278 144.366 313.61 143.958 312.794 143.698L310.679 142.919C310.122 142.733 309.677 142.399 309.343 141.917C309.009 141.435 308.842 140.896 308.842 140.303C308.842 139.672 309.009 139.097 309.343 138.577C309.677 138.021 310.122 137.631 310.679 137.408C311.31 137.148 313.017 137.019 315.8 137.019H340.181ZM316.857 156.557L322.758 166.354V196.189C322.758 198.787 323.185 200.921 324.038 202.591C324.929 204.261 326.32 205.634 328.213 206.71L329.883 207.656C330.848 208.213 331.33 209.048 331.33 210.161C331.33 211.015 330.978 211.72 330.272 212.276C329.679 212.759 328.454 213 326.599 213H313.74C310.363 213 308.675 212.035 308.675 210.105C308.675 209.438 308.842 208.918 309.176 208.547C309.547 208.139 310.326 207.601 311.514 206.933C315.076 204.966 316.857 201.385 316.857 196.189V156.557ZM369.794 179.546L363.894 169.582V154.163C363.894 151.046 363.43 148.671 362.502 147.038C361.611 145.368 360.016 143.939 357.715 142.752C356.936 142.381 356.397 141.991 356.101 141.583C355.804 141.138 355.655 140.581 355.655 139.913C355.655 138.911 355.971 138.188 356.602 137.742C357.27 137.26 358.327 137.019 359.774 137.019H373.69C375.583 137.019 376.826 137.315 377.42 137.909C378.051 138.503 378.366 139.208 378.366 140.024C378.366 140.804 378.181 141.397 377.81 141.806C377.476 142.177 376.641 142.696 375.305 143.364C373.338 144.366 371.854 145.906 370.852 147.984C370.146 149.506 369.794 151.565 369.794 154.163V179.546Z" fill="white"/>
<path d="M699.831 135.516V141.917C697.53 142.548 695.768 143.531 694.543 144.867C693.355 146.166 692.762 147.78 692.762 149.71C692.762 151.565 693.263 153.198 694.265 154.608C695.267 155.981 696.899 157.299 699.163 158.561C700.722 159.414 704.247 161.047 709.739 163.459C713.079 164.906 715.658 166.224 717.477 167.411C719.332 168.562 721.076 170.009 722.709 171.753C727.088 176.354 729.277 181.828 729.277 188.174C729.277 192.961 728.09 197.34 725.715 201.311C723.34 205.281 720.074 208.398 715.918 210.662C713.691 211.85 711.242 212.777 708.57 213.445C705.936 214.15 703.468 214.503 701.167 214.503V208.157C704.396 207.378 706.715 206.302 708.125 204.929C709.572 203.519 710.296 201.626 710.296 199.251C710.296 196.765 709.183 194.575 706.956 192.683C705.472 191.458 702.651 189.937 698.495 188.118C693.931 186.114 690.795 184.686 689.088 183.832C687.418 182.979 685.804 181.977 684.245 180.826C677.269 175.854 673.78 169.229 673.78 160.954C673.78 156.724 674.652 152.827 676.396 149.265C678.141 145.665 680.571 142.771 683.688 140.581C688.03 137.538 693.411 135.85 699.831 135.516ZM704.229 141.917V135.794C706.455 135.942 708.385 136.239 710.018 136.685C711.65 137.093 713.97 137.928 716.976 139.189C717.718 139.486 718.33 139.635 718.812 139.635C719.518 139.635 720.037 139.394 720.371 138.911L721.596 137.297C722.189 136.48 722.913 136.072 723.767 136.072C724.769 136.072 725.492 136.443 725.938 137.186C726.42 137.891 726.661 139.022 726.661 140.581V158.95C726.661 160.026 726.346 160.917 725.715 161.622C725.121 162.29 724.342 162.624 723.377 162.624C722.635 162.624 721.948 162.383 721.317 161.9C720.983 161.604 720.705 161.251 720.482 160.843C720.297 160.397 720.111 159.674 719.926 158.672C719.518 156.854 718.812 154.979 717.811 153.05C716.809 151.12 715.64 149.395 714.304 147.873C711.632 144.867 708.273 142.882 704.229 141.917ZM696.937 208.157V214.503C693.894 214.503 690.535 213.631 686.861 211.887C685.488 211.256 684.542 210.848 684.022 210.662C683.503 210.477 683.002 210.384 682.52 210.384C681.777 210.384 681.221 210.514 680.85 210.773C680.479 210.996 679.885 211.59 679.068 212.555C678.4 213.371 677.677 213.779 676.897 213.779C674.819 213.779 673.78 212.184 673.78 208.992V188.73C673.78 187.691 674.077 186.819 674.671 186.114C675.265 185.372 676.007 184.982 676.897 184.945C677.714 184.908 678.345 185.149 678.79 185.669C679.272 186.151 679.681 187.023 680.015 188.285C680.868 191.477 682.093 194.464 683.688 197.247C685.321 200.03 687.214 202.387 689.366 204.316C691.556 206.32 694.079 207.601 696.937 208.157ZM768.688 135.516V142.251C766.498 142.585 764.865 143.55 763.789 145.146C762.713 146.741 762.175 149.023 762.175 151.992V197.971V200.364C762.175 201.218 762.342 202.127 762.676 203.092C763.047 204.02 763.511 204.817 764.067 205.485C764.661 206.228 765.292 206.766 765.96 207.1C766.628 207.396 767.537 207.601 768.688 207.712V214.503C761.488 214.503 755.235 212.629 749.929 208.881C745.253 205.578 741.728 201.144 739.353 195.577C736.978 189.974 735.79 183.35 735.79 175.705C735.79 170.102 736.551 164.888 738.072 160.063C739.631 155.202 741.876 150.99 744.808 147.428C747.776 143.828 751.32 140.934 755.439 138.744C759.596 136.555 763.585 135.46 767.407 135.46L768.688 135.516ZM773.085 142.307V135.571C774.903 135.868 776.369 136.184 777.482 136.518C778.633 136.852 780.692 137.557 783.661 138.633C785.554 139.301 786.815 139.635 787.446 139.635C788.522 139.635 789.339 139.152 789.896 138.188L790.619 136.852C791.064 135.961 791.899 135.516 793.124 135.516C794.126 135.516 794.887 135.812 795.406 136.406C795.963 137 796.241 137.872 796.241 139.022V162.179C796.241 163.663 795.907 164.739 795.239 165.407C794.571 166.075 793.811 166.409 792.957 166.409C792.066 166.409 791.343 166.131 790.786 165.574C790.267 164.98 789.84 164.034 789.506 162.735C788.727 159.804 787.966 157.503 787.224 155.833C785.628 152.308 783.81 149.45 781.769 147.261C780.396 145.776 779.022 144.645 777.649 143.865C776.276 143.049 774.755 142.529 773.085 142.307ZM773.252 214.503V207.712C776.146 207.489 779.189 206.395 782.381 204.428C784.088 203.352 785.609 201.923 786.945 200.142C788.281 198.323 789.283 196.338 789.951 194.186C790.322 192.998 790.749 192.163 791.231 191.681C791.751 191.161 792.419 190.901 793.235 190.901C794.126 190.901 794.868 191.235 795.462 191.903C796.056 192.571 796.353 193.406 796.353 194.408C796.353 196.078 795.703 198.101 794.404 200.476C793.143 202.851 791.51 205.04 789.506 207.044C787.057 209.493 784.533 211.312 781.936 212.499C779.375 213.687 776.48 214.354 773.252 214.503ZM834.037 141.527C832.145 142.195 830.809 143.104 830.029 144.255C829.25 145.405 828.86 147.094 828.86 149.32V199.084C828.86 202.35 829.306 204.65 830.196 205.986C830.901 207.1 832.182 207.897 834.037 208.38V214.503C825.799 213.835 818.896 210.736 813.33 205.207C806.094 198.008 802.476 187.97 802.476 175.093C802.476 168.636 803.422 162.81 805.314 157.614C807.244 152.382 810.083 147.947 813.831 144.311C816.688 141.527 819.769 139.412 823.071 137.965C826.374 136.518 830.029 135.701 834.037 135.516V141.527ZM838.602 141.527V135.516C842.609 135.701 846.265 136.518 849.567 137.965C852.907 139.412 856.006 141.527 858.863 144.311C866.434 151.695 870.219 161.956 870.219 175.093C870.219 187.97 866.601 198.008 859.364 205.207C853.798 210.773 846.877 213.872 838.602 214.503V208.38C839.566 208.157 840.309 207.879 840.828 207.545C841.385 207.174 841.886 206.654 842.331 205.986C843.333 204.465 843.834 202.164 843.834 199.084V149.32C843.834 147.354 843.5 145.795 842.832 144.645C842.387 143.865 841.849 143.253 841.218 142.808C840.624 142.362 839.752 141.936 838.602 141.527ZM881.853 190.79V147.149C881.853 145.851 881.63 144.904 881.185 144.311C880.962 143.977 880.739 143.772 880.517 143.698C880.331 143.587 879.626 143.327 878.401 142.919C876.917 142.437 876.175 141.453 876.175 139.969C876.175 139.004 876.527 138.28 877.232 137.798C877.975 137.278 879.014 137.019 880.35 137.019H881.797H906.623H908.07L910.074 137.241C910.705 137.427 911.225 137.761 911.633 138.243C912.041 138.726 912.245 139.301 912.245 139.969C912.245 141.453 911.503 142.437 910.019 142.919C908.794 143.327 908.07 143.587 907.848 143.698C907.662 143.772 907.458 143.977 907.235 144.311C906.79 144.904 906.567 145.851 906.567 147.149V193.852C906.567 197.006 906.642 199.214 906.79 200.476C906.976 201.7 907.328 202.813 907.848 203.815C908.33 204.743 908.868 205.411 909.462 205.819C910.056 206.228 911.188 206.691 912.857 207.211V214.503H911.633C906.809 214.503 902.801 214.076 899.609 213.223C895.861 212.221 892.577 210.736 889.757 208.77C886.937 206.803 884.933 204.595 883.745 202.146C882.483 199.548 881.853 195.763 881.853 190.79ZM917.979 214.503V207.211C921.689 206.729 924.788 205.207 927.274 202.646C930.095 199.715 931.505 195.503 931.505 190.011V153.718C931.505 148.634 929.557 145.09 925.66 143.086C924.51 142.492 923.749 141.991 923.378 141.583C923.044 141.138 922.877 140.507 922.877 139.69C922.877 138.726 923.229 138.039 923.935 137.631C924.64 137.223 925.79 137.019 927.386 137.019H941.023C942.174 137.019 942.935 137.056 943.306 137.13C943.714 137.167 944.104 137.297 944.475 137.52C945.439 138.076 945.922 138.837 945.922 139.802C945.922 140.618 945.625 141.305 945.031 141.861C944.846 142.047 944.048 142.548 942.638 143.364C941.005 144.255 939.725 145.628 938.797 147.483C937.869 149.302 937.405 151.38 937.405 153.718V190.066C937.405 196.301 936.032 201.422 933.286 205.43C931.282 208.398 928.406 210.773 924.658 212.555C922.803 213.445 920.576 214.095 917.979 214.503ZM995.853 137.019V202.424C995.853 203.871 996.131 204.91 996.688 205.541C996.984 205.912 997.263 206.153 997.522 206.265C997.782 206.339 998.636 206.562 1000.08 206.933C1001.86 207.341 1002.75 208.361 1002.75 209.994C1002.75 210.959 1002.27 211.738 1001.31 212.332C1000.6 212.777 999.415 213 997.745 213H995.908H971.082H969.245C967.612 213 966.369 212.759 965.516 212.276C964.699 211.757 964.291 210.996 964.291 209.994C964.291 208.361 965.182 207.341 966.963 206.933C968.41 206.562 969.264 206.339 969.523 206.265C969.783 206.153 970.043 205.912 970.303 205.541C970.859 204.91 971.138 203.871 971.138 202.424V137.019H995.853ZM1015.11 137.019V159.785C1015.11 160.861 1014.8 161.733 1014.17 162.401C1013.57 163.069 1012.79 163.403 1011.83 163.403C1010.9 163.403 1010.12 163.106 1009.49 162.513C1008.9 161.882 1008.51 161.028 1008.32 159.952L1007.76 156.557C1007.21 153.105 1006.13 150.118 1004.54 147.595C1003.53 146.036 1002.18 144.756 1000.47 143.754V137.019H1015.11ZM951.989 137.019H966.629V143.754C964.885 144.756 963.53 146.036 962.565 147.595C960.97 150.118 959.894 153.105 959.337 156.557L958.78 159.952C958.595 161.028 958.187 161.882 957.556 162.513C956.962 163.106 956.201 163.403 955.273 163.403C954.309 163.403 953.511 163.069 952.88 162.401C952.286 161.733 951.989 160.861 951.989 159.785V137.019Z" fill="white"/>
</svg>
